<svg xmlns="http://www.w3.org/2000/svg" xmlns:xlink="http://www.w3.org/1999/xlink" width="103" height="26" xml:space="preserve">  <g>    <path d="M66.0853 1.42803 77.8602 1.42803 77.8602 5.38121 66.0853 5.38121Z" fill="#4276BA" transform="scale(1.01342 1)"></path>    <path d="M1.57576 22.0488 3.575 19.6359C4.9597 20.7862 6.40939 21.517 8.16636 21.517 9.55106 21.517 10.3842 20.9635 10.3842 20.0555L10.3842 20.0102C10.3842 19.1474 9.85636 18.7042 7.28591 18.0405 4.18758 17.2427 2.18833 16.38 2.18833 13.3033L2.18833 13.26C2.18833 10.4492 4.42985 8.58985 7.57152 8.58985 9.81303 8.58985 11.7236 9.29894 13.2836 10.5595L11.5267 13.128C10.1636 12.1767 8.82424 11.6015 7.52818 11.6015 6.23212 11.6015 5.55061 12.1983 5.55061 12.9508L5.55061 12.9941C5.55061 14.0124 6.21045 14.3433 8.86758 15.0308 11.9876 15.8502 13.7445 16.9788 13.7445 19.6792L13.7445 19.7226C13.7445 22.7992 11.4164 24.5247 8.09939 24.5247 5.77121 24.5267 3.42136 23.7073 1.57576 22.0488" fill="#FFFFFF" transform="scale(1.01342 1)"></path>    <path d="M20.4691 18.1961 14.558 8.81242 18.5132 8.81242 22.1827 15.0327 25.9173 8.81242 29.7621 8.81242 23.8511 18.1311 23.8511 24.3061 20.4691 24.3061Z" fill="#FFFFFF" transform="scale(1.01342 1)"></path>    <path d="M31.7594 8.81242 34.8794 8.81242 42.0845 18.3517 42.0845 8.81242 45.4252 8.81242 45.4252 24.3061 42.5474 24.3061 35.1 14.4556 35.1 24.3061 31.7594 24.3061Z" fill="#FFFFFF" transform="scale(1.01342 1)"></path>    <path d="M49.1144 8.81242 55.1121 8.81242C59.9458 8.81242 63.2844 12.155 63.2844 16.5139L63.2844 16.5573C63.2844 20.9182 59.9458 24.3041 55.1121 24.3041L49.1144 24.3041 49.1144 8.81242ZM55.1121 21.2294C57.8795 21.2294 59.7488 19.3483 59.7488 16.6026L59.7488 16.5592C59.7488 13.8155 57.8815 11.8891 55.1121 11.8891L52.4983 11.8891 52.4983 21.2294 55.1121 21.2294Z" fill="#FFFFFF" transform="scale(1.01342 1)"></path>    <path d="M66.2941 8.81242 77.8936 8.81242 77.8936 11.8438 69.6544 11.8438 69.6544 14.9874 76.9049 14.9874 76.9049 18.0188 69.6544 18.0188 69.6544 21.2727 78.0039 21.2727 78.0039 24.3061 66.2941 24.3061Z" fill="#FFFFFF" transform="scale(1.01342 1)"></path>    <path d="M80.2218 16.6026 80.2218 16.5592C80.2218 12.155 83.6708 8.54652 88.4158 8.54652 93.1608 8.54652 96.5664 12.1097 96.5664 16.5139L96.5664 16.5573C96.5664 20.9615 93.1174 24.57 88.3724 24.57 83.6274 24.572 80.2218 21.0068 80.2218 16.6026M93.0308 16.6026 93.0308 16.5592C93.0308 13.9041 91.0985 11.6902 88.3744 11.6902 85.6503 11.6902 83.7614 13.8588 83.7614 16.5159L83.7614 16.5592C83.7614 19.2144 85.6936 21.4283 88.4197 21.4283 91.1398 21.4283 93.0308 19.2597 93.0308 16.6026" fill="#FFFFFF" transform="scale(1.01342 1)"></path>    <path d="M99.7021 10.4315C99.4638 10.6738 99.1742 10.7939 98.8355 10.7939 98.4967 10.7939 98.2091 10.6738 97.9708 10.4315 97.7344 10.1912 97.6162 9.8997 97.6162 9.55697 97.6162 9.21818 97.7364 8.92864 97.9747 8.68833 98.213 8.44803 98.4986 8.32985 98.8355 8.32985 99.1742 8.32985 99.4618 8.45 99.7021 8.68833 99.9405 8.92864 100.061 9.21818 100.061 9.55697 100.061 9.89773 99.9405 10.1892 99.7021 10.4315M98.0929 8.80849C97.888 9.0153 97.7856 9.26546 97.7856 9.55894 97.7856 9.85439 97.888 10.1065 98.0909 10.3133 98.2958 10.5221 98.5439 10.6245 98.8355 10.6245 99.127 10.6245 99.3752 10.5202 99.58 10.3133 99.7849 10.1045 99.8873 9.85439 99.8873 9.55894 99.8873 9.26546 99.7849 9.0153 99.58 8.80849 99.3752 8.5997 99.127 8.49727 98.8355 8.49727 98.5459 8.4953 98.2997 8.5997 98.0929 8.80849M98.8138 8.87742C98.9812 8.87742 99.1033 8.89318 99.1802 8.92667 99.318 8.98576 99.3889 9.1 99.3889 9.26939 99.3889 9.38955 99.3456 9.48015 99.257 9.53727 99.2117 9.56682 99.1467 9.58848 99.0639 9.60227 99.1683 9.62 99.2452 9.66333 99.2944 9.73424 99.3436 9.80515 99.3673 9.87606 99.3673 9.94303L99.3673 10.0415C99.3673 10.073 99.3673 10.1065 99.3712 10.142 99.3732 10.1774 99.3771 10.2011 99.383 10.2129L99.3909 10.2306 99.1703 10.2306 99.1664 10.2168 99.1624 10.2011 99.1585 10.1577 99.1585 10.0514C99.1585 9.89576 99.1171 9.79136 99.0324 9.74212 98.9832 9.71258 98.8945 9.69879 98.7685 9.69879L98.5814 9.69879 98.5814 10.2306 98.345 10.2306 98.345 8.87742 98.8138 8.87742ZM99.0679 9.09015C99.0088 9.05667 98.9123 9.03894 98.7823 9.03894L98.5794 9.03894 98.5794 9.52939 98.7941 9.52939C98.8945 9.52939 98.9694 9.51955 99.0186 9.49985 99.1112 9.46242 99.1565 9.39152 99.1565 9.28909 99.1585 9.19061 99.127 9.12364 99.0679 9.09015" fill="#FFFFFF" transform="scale(1.01342 1)"></path>  </g></svg>